<svg xmlns="http://www.w3.org/2000/svg" xmlns:xlink="http://www.w3.org/1999/xlink" width="186" height="186" viewBox="0 0 186 186"><defs><path id="xua3a" d="M269.83 636.34a92.83 92.83 0 1 1 0 185.66 92.83 92.83 0 0 1 0-185.66z"/><path id="xua3b" d="M310.69 700.12l-6.57 10.54-32.79-20.41 6.57-10.55a9.94 9.94 0 0 1 13.68-3.18l15.93 9.91a9.94 9.94 0 0 1 3.18 13.69zm-39.42 63.19l-32.72-20.41 30.29-48.54 32.71 20.42zm4.42-56.66c-1.54-.96-3.53-.56-4.4.87L249.76 742c-.9 1.4-.4 3.36 1.16 4.32 1.52.97 3.5.57 4.4-.84l21.53-34.5c.9-1.43.37-3.39-1.16-4.34zm11.85 7.4c-1.53-.95-3.53-.57-4.4.86l-21.54 34.5c-.89 1.4-.36 3.38 1.17 4.32 1.54.97 3.52.57 4.4-.84l21.54-34.49c.9-1.44.37-3.39-1.17-4.36zm-33.73 61.2a19.84 19.84 0 0 0-7.43-8.38 19.84 19.84 0 0 0-10.78-2.97l-.6-15.21 32.7 20.4zm-9.22-5.51a15.51 15.51 0 0 1 6.02 6.92l-14.27 6.32-.61-15.59c3.02-.12 6.1.63 8.86 2.35z"/></defs><g><g transform="translate(-177 -636)"><use fill="#5094f2" xlink:href="#xua3a"/></g><g transform="translate(-177 -636)"><use fill="#fff" xlink:href="#xua3b"/></g></g></svg>